<?xml version="1.0" standalone="no"?>
<svg xmlns:xlink="http://www.w3.org/1999/xlink" id="wave" style="transform:rotate(0deg); transition: 0.3s" viewBox="0 0 1440 490" version="1.1" xmlns="http://www.w3.org/2000/svg"><defs><linearGradient id="sw-gradient-0" x1="0" x2="0" y1="1" y2="0"><stop stop-color="rgba(10.139, 4.612, 2.837, 1)" offset="0%"/><stop stop-color="rgba(255, 179, 11, 1)" offset="100%"/></linearGradient></defs><path style="transform:translate(0, 0px); opacity:1" fill="url(#sw-gradient-0)" d="M0,294L26.7,269.5C53.3,245,107,196,160,147C213.3,98,267,49,320,73.5C373.3,98,427,196,480,196C533.3,196,587,98,640,73.5C693.3,49,747,98,800,130.7C853.3,163,907,180,960,187.8C1013.3,196,1067,196,1120,171.5C1173.3,147,1227,98,1280,89.8C1333.3,82,1387,114,1440,138.8C1493.3,163,1547,180,1600,228.7C1653.3,278,1707,359,1760,383.8C1813.3,408,1867,376,1920,359.3C1973.3,343,2027,343,2080,343C2133.3,343,2187,343,2240,359.3C2293.3,376,2347,408,2400,416.5C2453.3,425,2507,408,2560,392C2613.3,376,2667,359,2720,351.2C2773.3,343,2827,343,2880,318.5C2933.3,294,2987,245,3040,245C3093.3,245,3147,294,3200,285.8C3253.3,278,3307,212,3360,179.7C3413.3,147,3467,147,3520,179.7C3573.3,212,3627,278,3680,253.2C3733.3,229,3787,114,3813,57.2L3840,0L3840,490L3813.3,490C3786.7,490,3733,490,3680,490C3626.7,490,3573,490,3520,490C3466.7,490,3413,490,3360,490C3306.7,490,3253,490,3200,490C3146.7,490,3093,490,3040,490C2986.7,490,2933,490,2880,490C2826.7,490,2773,490,2720,490C2666.7,490,2613,490,2560,490C2506.7,490,2453,490,2400,490C2346.7,490,2293,490,2240,490C2186.7,490,2133,490,2080,490C2026.7,490,1973,490,1920,490C1866.7,490,1813,490,1760,490C1706.7,490,1653,490,1600,490C1546.7,490,1493,490,1440,490C1386.7,490,1333,490,1280,490C1226.7,490,1173,490,1120,490C1066.7,490,1013,490,960,490C906.7,490,853,490,800,490C746.7,490,693,490,640,490C586.7,490,533,490,480,490C426.7,490,373,490,320,490C266.7,490,213,490,160,490C106.7,490,53,490,27,490L0,490Z"/></svg>